<?xml version="1.0" encoding="UTF-8" standalone="no"?>
<!-- Created with Inkscape (http://www.inkscape.org/) -->

<svg
   width="30"
   height="5"
   viewBox="0 0 7.9374998 1.3229167"
   version="1.1"
   id="svg1"
   inkscape:version="1.4.2 (f4327f4, 2025-05-13)"
   sodipodi:docname="corazones.svg"
   inkscape:export-filename="corazones.png"
   inkscape:export-xdpi="288"
   inkscape:export-ydpi="288"
   xmlns:inkscape="http://www.inkscape.org/namespaces/inkscape"
   xmlns:sodipodi="http://sodipodi.sourceforge.net/DTD/sodipodi-0.dtd"
   xmlns="http://www.w3.org/2000/svg"
   xmlns:svg="http://www.w3.org/2000/svg">
  <sodipodi:namedview
     id="namedview1"
     pagecolor="#2b0640"
     bordercolor="#000000"
     borderopacity="0.25"
     inkscape:showpageshadow="2"
     inkscape:pageopacity="0.0"
     inkscape:pagecheckerboard="0"
     inkscape:deskcolor="#d1d1d1"
     inkscape:document-units="mm"
     inkscape:zoom="23.233446"
     inkscape:cx="16.850708"
     inkscape:cy="2.4748804"
     inkscape:window-width="1920"
     inkscape:window-height="1017"
     inkscape:window-x="-8"
     inkscape:window-y="-8"
     inkscape:window-maximized="1"
     inkscape:current-layer="layer1" />
  <defs
     id="defs1">
    <linearGradient
       id="swatch3"
       inkscape:swatch="solid">
      <stop
         style="stop-color:#000000;stop-opacity:1;"
         offset="0"
         id="stop3" />
    </linearGradient>
    <linearGradient
       id="swatch1"
       inkscape:swatch="solid">
      <stop
         style="stop-color:#bf0e00;stop-opacity:1;"
         offset="0"
         id="stop1" />
    </linearGradient>
    <inkscape:path-effect
       effect="fill_between_many"
       method="originald"
       linkedpaths="#path2,0,1|"
       id="path-effect2" />
  </defs>
  <g
     inkscape:label="Capa 1"
     inkscape:groupmode="layer"
     id="layer1">
    <g
       id="g16"
       transform="matrix(-1.2165278,0,0,-0.77622791,8.9102836,1.2676176)">
      <g
         id="g1"
         transform="translate(0.15908771,-0.03985813)">
        <path
           style="font-weight:bold;font-size:0.916755px;font-family:Verdana;-inkscape-font-specification:'Verdana Bold';fill:#000000;stroke-width:0.0763962"
           d="m 0.98665568,0.19792074 c -0.0268581,0 -0.0529639,0.003173 -0.0780314,0.0103353 -0.0247691,0.006864 -0.0477599,0.0169218 -0.0692464,0.0294556 -0.0214864,0.0125337 -0.0410057,0.0275699 -0.0589111,0.0454753 -0.0179054,0.0179053 -0.0334583,0.0374247 -0.045992,0.0589111 -0.0125338,0.0214865 -0.0222934,0.0452124 -0.0294556,0.0702799 -0.006864,0.0247691 -0.0103353,0.0501398 -0.0103353,0.0769979 0,0.0396902 0.00738,0.0772224 0.0217041,0.11213786 0.0146227,0.0349155 0.0360271,0.0665161 0.0640788,0.0945679 L 1.2093811,1.1249959 1.6388123,0.69608154 c 0.028051,-0.0280517 0.049237,-0.0596524 0.063562,-0.0945679 0.014623,-0.0349154 0.022221,-0.0724476 0.022221,-0.11213786 0,-0.0268581 -0.00369,-0.0522288 -0.010852,-0.0769979 -0.00686,-0.0247691 -0.016624,-0.0482767 -0.029456,-0.0697632 -0.012534,-0.0217849 -0.028087,-0.0413042 -0.045992,-0.0589111 -0.017607,-0.0179054 -0.037126,-0.0329415 -0.058911,-0.0454753 -0.021486,-0.0128322 -0.044477,-0.0231086 -0.069246,-0.0299723 -0.024769,-0.007162 -0.050657,-0.0103353 -0.077515,-0.0103353 -0.022979,0 -0.04482,0.002241 -0.065112,0.006718 -0.020293,0.004476 -0.039674,0.0112011 -0.057878,0.0201538 -0.017905,0.008654 -0.034964,0.0192072 -0.051676,0.0320394 -0.016413,0.0125337 -0.032759,0.0267766 -0.048576,0.0428914 -0.015816,-0.0161149 -0.031864,-0.0303577 -0.048576,-0.0428914 -0.016413,-0.0128322 -0.033473,-0.0233851 -0.051677,-0.0320394 -0.017905,-0.008654 -0.037068,-0.0156771 -0.057361,-0.0201538 -0.020293,-0.004775 -0.042135,-0.006718 -0.0651116,-0.006718 z"
           id="path2" />
        <path
           style="font-weight:bold;font-size:0.916755px;font-family:Verdana;-inkscape-font-specification:'Verdana Bold';fill:#ff0000;stroke-width:0.0763962"
           d="m 0.98665568,0.26199951 c 0.0244704,0 0.0465297,0.003552 0.0656291,0.009819 0.019397,0.005968 0.037112,0.0138431 0.053227,0.0242879 0.016413,0.0104448 0.031886,0.0226644 0.046509,0.0366903 0.014623,0.0137275 0.029222,0.0286253 0.044442,0.0444417 l 0.012919,0.0134359 0.014469,-0.0149862 c 0.01522,-0.015518 0.030118,-0.0301975 0.044442,-0.043925 0.014623,-0.0140259 0.029877,-0.0260271 0.045992,-0.0361735 0.016115,-0.0104446 0.033611,-0.0183193 0.05271,-0.0242879 0.019099,-0.005969 0.041158,-0.009302 0.065629,-0.009302 0.031335,0 0.060395,0.00615 0.08785,0.0180867 0.027753,0.0119369 0.052272,0.0279847 0.072864,0.0485759 0.020591,0.0205912 0.036639,0.0451104 0.048576,0.0728638 0.011937,0.0274549 0.018087,0.0565155 0.018087,0.0878499 0,0.0304391 -0.00593,0.0595798 -0.01757,0.0873332 -0.01134,0.0274549 -0.027606,0.0518941 -0.049093,0.0733805 L 1.2093811,1.0345622 0.82594198,0.65008952 c -0.0214865,-0.0214864 -0.0379709,-0.0459256 -0.0496094,-0.0733805 -0.0113401,-0.0277533 -0.0170532,-0.056894 -0.0170532,-0.0873332 0,-0.0313345 0.00615,-0.0603951 0.0180868,-0.0878499 0.0119369,-0.0277533 0.0279848,-0.0522726 0.0485758,-0.0728638 0.0205912,-0.0205911 0.0448921,-0.0366389 0.072347,-0.0485759 0.0277533,-0.0119369 0.0570323,-0.0180868 0.0883667,-0.0180867 z"
           id="path3" />
      </g>
      <g
         id="g5"
         transform="translate(1.5057231)">
        <path
           style="font-weight:bold;font-size:0.916755px;font-family:Verdana;-inkscape-font-specification:'Verdana Bold';fill:#000000;stroke-width:0.0763962"
           d="m 0.98665568,0.19792074 c -0.0268581,0 -0.0529639,0.003173 -0.0780314,0.0103353 -0.0247691,0.006864 -0.0477599,0.0169218 -0.0692464,0.0294556 -0.0214864,0.0125337 -0.0410057,0.0275699 -0.0589111,0.0454753 -0.0179054,0.0179053 -0.0334583,0.0374247 -0.045992,0.0589111 -0.0125338,0.0214865 -0.0222934,0.0452124 -0.0294556,0.0702799 -0.006864,0.0247691 -0.0103353,0.0501398 -0.0103353,0.0769979 0,0.0396902 0.00738,0.0772224 0.0217041,0.11213786 0.0146227,0.0349155 0.0360271,0.0665161 0.0640788,0.0945679 L 1.2093811,1.1249959 1.6388123,0.69608154 c 0.028051,-0.0280517 0.049237,-0.0596524 0.063562,-0.0945679 0.014623,-0.0349154 0.022221,-0.0724476 0.022221,-0.11213786 0,-0.0268581 -0.00369,-0.0522288 -0.010852,-0.0769979 -0.00686,-0.0247691 -0.016624,-0.0482767 -0.029456,-0.0697632 -0.012534,-0.0217849 -0.028087,-0.0413042 -0.045992,-0.0589111 -0.017607,-0.0179054 -0.037126,-0.0329415 -0.058911,-0.0454753 -0.021486,-0.0128322 -0.044477,-0.0231086 -0.069246,-0.0299723 -0.024769,-0.007162 -0.050657,-0.0103353 -0.077515,-0.0103353 -0.022979,0 -0.04482,0.002241 -0.065112,0.006718 -0.020293,0.004476 -0.039674,0.0112011 -0.057878,0.0201538 -0.017905,0.008654 -0.034964,0.0192072 -0.051676,0.0320394 -0.016413,0.0125337 -0.032759,0.0267766 -0.048576,0.0428914 -0.015816,-0.0161149 -0.031864,-0.0303577 -0.048576,-0.0428914 -0.016413,-0.0128322 -0.033473,-0.0233851 -0.051677,-0.0320394 -0.017905,-0.008654 -0.037068,-0.0156771 -0.057361,-0.0201538 -0.020293,-0.004775 -0.042135,-0.006718 -0.0651116,-0.006718 z"
           id="path4" />
        <path
           style="font-weight:bold;font-size:0.916755px;font-family:Verdana;-inkscape-font-specification:'Verdana Bold';fill:#ff0000;stroke-width:0.0763962"
           d="m 0.98665568,0.26199951 c 0.0244704,0 0.0465297,0.003552 0.0656291,0.009819 0.019397,0.005968 0.037112,0.0138431 0.053227,0.0242879 0.016413,0.0104448 0.031886,0.0226644 0.046509,0.0366903 0.014623,0.0137275 0.029222,0.0286253 0.044442,0.0444417 l 0.012919,0.0134359 0.014469,-0.0149862 c 0.01522,-0.015518 0.030118,-0.0301975 0.044442,-0.043925 0.014623,-0.0140259 0.029877,-0.0260271 0.045992,-0.0361735 0.016115,-0.0104446 0.033611,-0.0183193 0.05271,-0.0242879 0.019099,-0.005969 0.041158,-0.009302 0.065629,-0.009302 0.031335,0 0.060395,0.00615 0.08785,0.0180867 0.027753,0.0119369 0.052272,0.0279847 0.072864,0.0485759 0.020591,0.0205912 0.036639,0.0451104 0.048576,0.0728638 0.011937,0.0274549 0.018087,0.0565155 0.018087,0.0878499 0,0.0304391 -0.00593,0.0595798 -0.01757,0.0873332 -0.01134,0.0274549 -0.027606,0.0518941 -0.049093,0.0733805 L 1.2093811,1.0345622 0.82594198,0.65008952 c -0.0214865,-0.0214864 -0.0379709,-0.0459256 -0.0496094,-0.0733805 -0.0113401,-0.0277533 -0.0170532,-0.056894 -0.0170532,-0.0873332 0,-0.0313345 0.00615,-0.0603951 0.0180868,-0.0878499 0.0119369,-0.0277533 0.0279848,-0.0522726 0.0485758,-0.0728638 0.0205912,-0.0205911 0.0448921,-0.0366389 0.072347,-0.0485759 0.0277533,-0.0119369 0.0570323,-0.0180868 0.0883667,-0.0180867 z"
           id="path5" />
      </g>
      <g
         id="g9"
         transform="translate(2.8523584,-0.01610512)">
        <path
           style="font-weight:bold;font-size:0.916755px;font-family:Verdana;-inkscape-font-specification:'Verdana Bold';fill:#000000;stroke-width:0.0763962"
           d="m 0.98665568,0.19792074 c -0.0268581,0 -0.0529639,0.003173 -0.0780314,0.0103353 -0.0247691,0.006864 -0.0477599,0.0169218 -0.0692464,0.0294556 -0.0214864,0.0125337 -0.0410057,0.0275699 -0.0589111,0.0454753 -0.0179054,0.0179053 -0.0334583,0.0374247 -0.045992,0.0589111 -0.0125338,0.0214865 -0.0222934,0.0452124 -0.0294556,0.0702799 -0.006864,0.0247691 -0.0103353,0.0501398 -0.0103353,0.0769979 0,0.0396902 0.00738,0.0772224 0.0217041,0.11213786 0.0146227,0.0349155 0.0360271,0.0665161 0.0640788,0.0945679 L 1.2093811,1.1249959 1.6388123,0.69608154 c 0.028051,-0.0280517 0.049237,-0.0596524 0.063562,-0.0945679 0.014623,-0.0349154 0.022221,-0.0724476 0.022221,-0.11213786 0,-0.0268581 -0.00369,-0.0522288 -0.010852,-0.0769979 -0.00686,-0.0247691 -0.016624,-0.0482767 -0.029456,-0.0697632 -0.012534,-0.0217849 -0.028087,-0.0413042 -0.045992,-0.0589111 -0.017607,-0.0179054 -0.037126,-0.0329415 -0.058911,-0.0454753 -0.021486,-0.0128322 -0.044477,-0.0231086 -0.069246,-0.0299723 -0.024769,-0.007162 -0.050657,-0.0103353 -0.077515,-0.0103353 -0.022979,0 -0.04482,0.002241 -0.065112,0.006718 -0.020293,0.004476 -0.039674,0.0112011 -0.057878,0.0201538 -0.017905,0.008654 -0.034964,0.0192072 -0.051676,0.0320394 -0.016413,0.0125337 -0.032759,0.0267766 -0.048576,0.0428914 -0.015816,-0.0161149 -0.031864,-0.0303577 -0.048576,-0.0428914 -0.016413,-0.0128322 -0.033473,-0.0233851 -0.051677,-0.0320394 -0.017905,-0.008654 -0.037068,-0.0156771 -0.057361,-0.0201538 -0.020293,-0.004775 -0.042135,-0.006718 -0.0651116,-0.006718 z"
           id="path8" />
        <path
           id="path9"
           style="font-weight:bold;font-size:0.916755px;font-family:Verdana;-inkscape-font-specification:'Verdana Bold';fill:#ff0000;stroke-width:0.0763962"
           d="m 1.2093203,0.39075925 -0.012919,-0.0134359 c -0.01522,-0.0158164 -0.029819,-0.0307142 -0.044442,-0.0444417 -0.014623,-0.0140259 -0.030096,-0.0262455 -0.046509,-0.0366903 -0.016115,-0.0104448 -0.03383,-0.0183199 -0.053227,-0.0242879 -0.019099,-0.006267 -0.041159,-0.009819 -0.065629,-0.009819 -0.0313344,-9e-8 -0.0606134,0.00615 -0.0883667,0.0180867 -0.0274549,0.011937 -0.0517558,0.0279848 -0.072347,0.0485759 -0.020591,0.0205912 -0.036639,0.0451105 -0.0485759,0.0728638 -0.0119368,0.0274548 -0.0180867,0.0565154 -0.0180867,0.0878499 0,0.0304392 0.005713,0.0595799 0.0170532,0.0873332 0.0116385,0.0274549 0.0281229,0.0518941 0.0496094,0.0733805 L 1.2093203,1.0346476 Z" />
        <path
           id="path11"
           style="font-weight:bold;font-size:0.916755px;font-family:Verdana;-inkscape-font-specification:'Verdana Bold';fill:#ffffff;stroke-width:0.0763962"
           d="M 1.2093203,0.39075925 V 1.0346476 L 1.5932762,0.65017494 c 0.021487,-0.0214864 0.037753,-0.0459256 0.049093,-0.0733805 0.01164,-0.0277534 0.01757,-0.0568941 0.01757,-0.0873332 0,-0.0313344 -0.00615,-0.060395 -0.018087,-0.0878499 -0.011937,-0.0277534 -0.027985,-0.0522726 -0.048576,-0.0728638 -0.020592,-0.0205912 -0.045111,-0.036639 -0.072864,-0.0485759 -0.027455,-0.0119367 -0.056515,-0.0180867 -0.08785,-0.0180867 -0.024471,0 -0.04653,0.003333 -0.065629,0.009302 -0.019099,0.005969 -0.036595,0.0138433 -0.05271,0.0242879 -0.016115,0.0101464 -0.031369,0.0221476 -0.045992,0.0361735 -0.014324,0.0137275 -0.029222,0.028407 -0.044442,0.043925 z" />
      </g>
      <g
         id="g13"
         transform="translate(4.1989938,-0.01708206)">
        <path
           style="font-weight:bold;font-size:0.916755px;font-family:Verdana;-inkscape-font-specification:'Verdana Bold';fill:#000000;stroke-width:0.0763962"
           d="m 0.98665568,0.19792074 c -0.0268581,0 -0.0529639,0.003173 -0.0780314,0.0103353 -0.0247691,0.006864 -0.0477599,0.0169218 -0.0692464,0.0294556 -0.0214864,0.0125337 -0.0410057,0.0275699 -0.0589111,0.0454753 -0.0179054,0.0179053 -0.0334583,0.0374247 -0.045992,0.0589111 -0.0125338,0.0214865 -0.0222934,0.0452124 -0.0294556,0.0702799 -0.006864,0.0247691 -0.0103353,0.0501398 -0.0103353,0.0769979 0,0.0396902 0.00738,0.0772224 0.0217041,0.11213786 0.0146227,0.0349155 0.0360271,0.0665161 0.0640788,0.0945679 L 1.2093811,1.1249959 1.6388123,0.69608154 c 0.028051,-0.0280517 0.049237,-0.0596524 0.063562,-0.0945679 0.014623,-0.0349154 0.022221,-0.0724476 0.022221,-0.11213786 0,-0.0268581 -0.00369,-0.0522288 -0.010852,-0.0769979 -0.00686,-0.0247691 -0.016624,-0.0482767 -0.029456,-0.0697632 -0.012534,-0.0217849 -0.028087,-0.0413042 -0.045992,-0.0589111 -0.017607,-0.0179054 -0.037126,-0.0329415 -0.058911,-0.0454753 -0.021486,-0.0128322 -0.044477,-0.0231086 -0.069246,-0.0299723 -0.024769,-0.007162 -0.050657,-0.0103353 -0.077515,-0.0103353 -0.022979,0 -0.04482,0.002241 -0.065112,0.006718 -0.020293,0.004476 -0.039674,0.0112011 -0.057878,0.0201538 -0.017905,0.008654 -0.034964,0.0192072 -0.051676,0.0320394 -0.016413,0.0125337 -0.032759,0.0267766 -0.048576,0.0428914 -0.015816,-0.0161149 -0.031864,-0.0303577 -0.048576,-0.0428914 -0.016413,-0.0128322 -0.033473,-0.0233851 -0.051677,-0.0320394 -0.017905,-0.008654 -0.037068,-0.0156771 -0.057361,-0.0201538 -0.020293,-0.004775 -0.042135,-0.006718 -0.0651116,-0.006718 z"
           id="path12" />
        <path
           style="font-weight:bold;font-size:0.916755px;font-family:Verdana;-inkscape-font-specification:'Verdana Bold';fill:#ffffff;stroke-width:0.0763962"
           d="m 0.98665568,0.26199951 c 0.0244704,0 0.0465297,0.003552 0.0656291,0.009819 0.019397,0.005968 0.037112,0.0138431 0.053227,0.0242879 0.016413,0.0104448 0.031886,0.0226644 0.046509,0.0366903 0.014623,0.0137275 0.029222,0.0286253 0.044442,0.0444417 l 0.012919,0.0134359 0.014469,-0.0149862 c 0.01522,-0.015518 0.030118,-0.0301975 0.044442,-0.043925 0.014623,-0.0140259 0.029877,-0.0260271 0.045992,-0.0361735 0.016115,-0.0104446 0.033611,-0.0183193 0.05271,-0.0242879 0.019099,-0.005969 0.041158,-0.009302 0.065629,-0.009302 0.031335,0 0.060395,0.00615 0.08785,0.0180867 0.027753,0.0119369 0.052272,0.0279847 0.072864,0.0485759 0.020591,0.0205912 0.036639,0.0451104 0.048576,0.0728638 0.011937,0.0274549 0.018087,0.0565155 0.018087,0.0878499 0,0.0304391 -0.00593,0.0595798 -0.01757,0.0873332 -0.01134,0.0274549 -0.027606,0.0518941 -0.049093,0.0733805 L 1.2093811,1.0345622 0.82594198,0.65008952 c -0.0214865,-0.0214864 -0.0379709,-0.0459256 -0.0496094,-0.0733805 -0.0113401,-0.0277533 -0.0170532,-0.056894 -0.0170532,-0.0873332 0,-0.0313345 0.00615,-0.0603951 0.0180868,-0.0878499 0.0119369,-0.0277533 0.0279848,-0.0522726 0.0485758,-0.0728638 0.0205912,-0.0205911 0.0448921,-0.0366389 0.072347,-0.0485759 0.0277533,-0.0119369 0.0570323,-0.0180868 0.0883667,-0.0180867 z"
           id="path13" />
      </g>
      <g
         id="g15"
         transform="translate(5.5456291,-0.0284701)">
        <path
           style="font-weight:bold;font-size:0.916755px;font-family:Verdana;-inkscape-font-specification:'Verdana Bold';fill:#000000;stroke-width:0.0763962"
           d="m 0.98665568,0.19792074 c -0.0268581,0 -0.0529639,0.003173 -0.0780314,0.0103353 -0.0247691,0.006864 -0.0477599,0.0169218 -0.0692464,0.0294556 -0.0214864,0.0125337 -0.0410057,0.0275699 -0.0589111,0.0454753 -0.0179054,0.0179053 -0.0334583,0.0374247 -0.045992,0.0589111 -0.0125338,0.0214865 -0.0222934,0.0452124 -0.0294556,0.0702799 -0.006864,0.0247691 -0.0103353,0.0501398 -0.0103353,0.0769979 0,0.0396902 0.00738,0.0772224 0.0217041,0.11213786 0.0146227,0.0349155 0.0360271,0.0665161 0.0640788,0.0945679 L 1.2093811,1.1249959 1.6388123,0.69608154 c 0.028051,-0.0280517 0.049237,-0.0596524 0.063562,-0.0945679 0.014623,-0.0349154 0.022221,-0.0724476 0.022221,-0.11213786 0,-0.0268581 -0.00369,-0.0522288 -0.010852,-0.0769979 -0.00686,-0.0247691 -0.016624,-0.0482767 -0.029456,-0.0697632 -0.012534,-0.0217849 -0.028087,-0.0413042 -0.045992,-0.0589111 -0.017607,-0.0179054 -0.037126,-0.0329415 -0.058911,-0.0454753 -0.021486,-0.0128322 -0.044477,-0.0231086 -0.069246,-0.0299723 -0.024769,-0.007162 -0.050657,-0.0103353 -0.077515,-0.0103353 -0.022979,0 -0.04482,0.002241 -0.065112,0.006718 -0.020293,0.004476 -0.039674,0.0112011 -0.057878,0.0201538 -0.017905,0.008654 -0.034964,0.0192072 -0.051676,0.0320394 -0.016413,0.0125337 -0.032759,0.0267766 -0.048576,0.0428914 -0.015816,-0.0161149 -0.031864,-0.0303577 -0.048576,-0.0428914 -0.016413,-0.0128322 -0.033473,-0.0233851 -0.051677,-0.0320394 -0.017905,-0.008654 -0.037068,-0.0156771 -0.057361,-0.0201538 -0.020293,-0.004775 -0.042135,-0.006718 -0.0651116,-0.006718 z"
           id="path14" />
        <path
           style="font-weight:bold;font-size:0.916755px;font-family:Verdana;-inkscape-font-specification:'Verdana Bold';fill:#ffffff;stroke-width:0.0763962"
           d="m 0.98665568,0.26199951 c 0.0244704,0 0.0465297,0.003552 0.0656291,0.009819 0.019397,0.005968 0.037112,0.0138431 0.053227,0.0242879 0.016413,0.0104448 0.031886,0.0226644 0.046509,0.0366903 0.014623,0.0137275 0.029222,0.0286253 0.044442,0.0444417 l 0.012919,0.0134359 0.014469,-0.0149862 c 0.01522,-0.015518 0.030118,-0.0301975 0.044442,-0.043925 0.014623,-0.0140259 0.029877,-0.0260271 0.045992,-0.0361735 0.016115,-0.0104446 0.033611,-0.0183193 0.05271,-0.0242879 0.019099,-0.005969 0.041158,-0.009302 0.065629,-0.009302 0.031335,0 0.060395,0.00615 0.08785,0.0180867 0.027753,0.0119369 0.052272,0.0279847 0.072864,0.0485759 0.020591,0.0205912 0.036639,0.0451104 0.048576,0.0728638 0.011937,0.0274549 0.018087,0.0565155 0.018087,0.0878499 0,0.0304391 -0.00593,0.0595798 -0.01757,0.0873332 -0.01134,0.0274549 -0.027606,0.0518941 -0.049093,0.0733805 L 1.2093811,1.0345622 0.82594198,0.65008952 c -0.0214865,-0.0214864 -0.0379709,-0.0459256 -0.0496094,-0.0733805 -0.0113401,-0.0277533 -0.0170532,-0.056894 -0.0170532,-0.0873332 0,-0.0313345 0.00615,-0.0603951 0.0180868,-0.0878499 0.0119369,-0.0277533 0.0279848,-0.0522726 0.0485758,-0.0728638 0.0205912,-0.0205911 0.0448921,-0.0366389 0.072347,-0.0485759 0.0277533,-0.0119369 0.0570323,-0.0180868 0.0883667,-0.0180867 z"
           id="path15" />
      </g>
    </g>
  </g>
</svg>
